<?xml version="1.0" encoding="UTF-8" standalone="no"?>
<svg xmlns="http://www.w3.org/2000/svg" width="32" height="32" viewBox="0 0 32 32">
  <!-- Background circle -->
  <circle cx="16" cy="16" r="16" fill="#0D1218"/>
  
  <!-- Rocket from footer, centered and sized for favicon -->
  <g transform="translate(4, 4) scale(1)">
    <path d="M4.5 16.5c-1.5 1.26-2 5-2 5s3.74-.5 5-2c.71-.84.7-2.13-.09-2.91a2.18 2.18 0 0 0-2.91-.09z" fill="#2D82FE" stroke="#2D82FE" stroke-width="1"/>
    <path d="m12 15-3-3a22 22 0 0 1 2-3.95A12.88 12.88 0 0 1 22 2c0 2.72-.78 7.5-6 11a22.35 22.35 0 0 1-4 2z" fill="#2D82FE" stroke="#2D82FE" stroke-width="1"/>
    <path d="M9 12H4s.55-3.03 2-4c1.62-1.08 5 0 5 0" fill="none" stroke="#2D82FE" stroke-width="1"/>
    <path d="M12 15v5s3.03-.55 4-2c1.08-1.62 0-5 0-5" fill="none" stroke="#2D82FE" stroke-width="1"/>
  </g>
</svg>